<svg width="19" height="14" viewBox="0 0 19 14" fill="none" xmlns="http://www.w3.org/2000/svg">
<path d="M4.99153 0.599121C4.0043 0.599121 3.03924 0.980339 2.21838 1.69457C1.39753 2.4088 0.757756 3.42396 0.379959 4.61168C0.00216275 5.7994 -0.0966861 7.10633 0.095913 8.36721C0.288512 9.62808 0.763909 10.7863 1.46199 11.6953C2.16006 12.6044 3.04947 13.2234 4.01773 13.4742C4.98599 13.725 5.98962 13.5963 6.9017 13.1043C7.81378 12.6124 8.59335 11.7792 9.14183 10.7103C9.6903 9.64141 9.98305 8.3847 9.98305 7.09912C9.98156 5.37581 9.45519 3.72364 8.51942 2.50507C7.58365 1.28651 6.3149 0.601063 4.99153 0.599121ZM4.99153 12.3411C4.19537 12.3411 3.4171 12.0336 2.75512 11.4576C2.09314 10.8816 1.5772 10.063 1.27252 9.10512C0.967846 8.14728 0.888129 7.0933 1.04345 6.07647C1.19877 5.05963 1.58216 4.12561 2.14512 3.39251C2.70809 2.65941 3.42535 2.16017 4.20621 1.95791C4.98706 1.75565 5.79644 1.85945 6.53199 2.2562C7.26754 2.65295 7.89622 3.32483 8.33854 4.18686C8.78086 5.04889 9.01695 6.06236 9.01695 7.09912C9.01567 8.48886 8.59116 9.8212 7.83652 10.8039C7.08188 11.7866 6.05874 12.3394 4.99153 12.3411ZM14.0085 0.599121C12.6318 0.599121 11.5932 3.39307 11.5932 7.09912C11.5932 10.8052 12.6318 13.5991 14.0085 13.5991C15.3852 13.5991 16.4237 10.8052 16.4237 7.09912C16.4237 3.39307 15.3852 0.599121 14.0085 0.599121ZM14.0085 12.3411C13.4175 12.3411 12.5593 10.2988 12.5593 7.09912C12.5593 3.89944 13.4175 1.85719 14.0085 1.85719C14.5994 1.85719 15.4576 3.89944 15.4576 7.09912C15.4576 10.2988 14.5994 12.3411 14.0085 12.3411ZM19 1.22815V12.9701C19 13.1369 18.9491 13.2969 18.8585 13.4149C18.7679 13.5328 18.6451 13.5991 18.5169 13.5991C18.3888 13.5991 18.266 13.5328 18.1754 13.4149C18.0848 13.2969 18.0339 13.1369 18.0339 12.9701V1.22815C18.0339 1.06132 18.0848 0.901327 18.1754 0.783361C18.266 0.665394 18.3888 0.599121 18.5169 0.599121C18.6451 0.599121 18.7679 0.665394 18.8585 0.783361C18.9491 0.901327 19 1.06132 19 1.22815Z" fill="#B0ADAD"/>
</svg>
