<svg width="189" height="46" viewBox="0 0 189 46" fill="none" xmlns="http://www.w3.org/2000/svg">
<path d="M117.939 13.3578L100.617 13.3578L91.6881 18.0451L54.9557 18.0451L49.0924 21.1222L12.1215 21.1222C12.015 20.7704 11.6589 20.4521 11.1243 20.2311C10.5898 20.0101 9.91605 19.9026 9.23786 19.93C8.55968 19.9575 7.92697 20.1179 7.46619 20.3792C7.00538 20.6405 6.75045 20.9835 6.75231 21.3396C6.75418 21.6957 7.0127 22.0386 7.47625 22.3C7.93977 22.5613 8.57416 22.7217 9.25263 22.7491C9.93111 22.7766 10.6037 22.6691 11.136 22.4481C11.6682 22.2271 12.021 21.9088 12.1238 21.557L49.4387 21.557L55.302 18.4799L92.0344 18.4799L100.966 13.7926L117.597 13.7926L124.729 17.5152L189.487 17.5152L189.484 17.0804L125.071 17.0804L117.939 13.3578Z" fill="url(#paint0_linear_74_5587)" fill-opacity="0.8"/>
<path d="M99.5126 26.3016L70.4988 26.3016L63.4881 22.6424H58.715L51.5029 26.4274L28.7633 26.4274C28.6568 26.0755 28.3007 25.7573 27.7661 25.5363C27.2315 25.3153 26.5578 25.2078 25.8796 25.2352C25.2014 25.2627 24.5687 25.4231 24.108 25.6844C23.6471 25.9457 23.3922 26.2887 23.3941 26.6448C23.3959 27.0009 23.6545 27.3438 24.118 27.6051C24.5815 27.8664 25.2159 28.0269 25.8944 28.0543C26.5729 28.0818 27.2455 27.9743 27.7777 27.7532C28.31 27.5322 28.6628 27.214 28.7656 26.8622L51.8492 26.8622L59.0613 23.0771H63.1464L70.1571 26.7363L99.8589 26.7363L109.728 21.557L189.508 21.557L189.506 21.1222L109.382 21.1222L99.5126 26.3016Z" fill="url(#paint1_linear_74_5587)" fill-opacity="0.8"/>
<path d="M107.923 29.9874L55.018 29.9874L44.6872 35.4092H28.769C28.6122 35.0628 28.2116 34.7598 27.6473 34.5607C27.083 34.3615 26.3965 34.281 25.7249 34.3351C25.0534 34.3891 24.4462 34.5739 24.0248 34.8524C23.6033 35.1309 23.3986 35.4827 23.4515 35.8374C23.5044 36.1922 23.811 36.5238 24.3101 36.766C24.8092 37.0083 25.464 37.1433 26.1437 37.1441C26.8235 37.1449 27.4781 37.0115 27.9768 36.7705C28.4755 36.5294 28.7815 36.1986 28.8339 35.844H45.0354L55.3663 30.4222L108.269 30.4222L116.604 26.0469L189.531 26.0469L189.529 25.6121L116.258 25.6121L107.923 29.9874Z" fill="url(#paint2_linear_74_5587)" fill-opacity="0.8"/>
<path d="M111.112 35.5135H102.317L97.3169 32.9039L87.0065 32.9039L84.0826 34.4384C83.5126 34.2467 82.826 34.1745 82.16 34.2361C81.4939 34.2976 80.8975 34.4885 80.4897 34.7705C80.0819 35.0526 79.8929 35.405 79.9603 35.7575C80.0277 36.11 80.3466 36.4366 80.8533 36.672C81.36 36.9074 82.0172 37.0344 82.6937 37.0276C83.3702 37.0207 84.0162 36.8806 84.5027 36.6351C84.9891 36.3896 85.2802 36.0569 85.3179 35.7033C85.3555 35.3498 85.1369 35.0014 84.7057 34.7279L87.3547 33.3377L96.983 33.3377L101.983 35.9483H111.459L120.99 30.9449L189.557 30.9449L189.555 30.5132L120.644 30.5132L111.112 35.5135Z" fill="url(#paint3_linear_74_5587)" fill-opacity="0.8"/>
<path d="M115.919 40.5026L74.9376 40.5026L68.5874 37.1871H54.6414L48.0648 40.6407H26.0093L22.0893 42.6867C21.5382 42.4761 20.8561 42.382 20.1794 42.423C19.5027 42.4641 18.8813 42.6374 18.4393 42.9082C17.9973 43.1791 17.7674 43.5275 17.7954 43.8839C17.8235 44.2403 18.1075 44.5784 18.5907 44.8306C19.0739 45.0828 19.7206 45.2305 20.4017 45.2442C21.0827 45.2579 21.7478 45.1366 22.2641 44.9045C22.7803 44.6725 23.1097 44.3468 23.1863 43.9925C23.2629 43.6382 23.0811 43.2815 22.6773 42.9936L26.3477 41.0734H48.4111L54.9877 37.6219H68.2456L74.5959 40.9374L116.268 40.9374L127.45 35.0686L189.579 35.0686L189.576 34.6338L127.104 34.6338L115.919 40.5026Z" fill="url(#paint4_linear_74_5587)" fill-opacity="0.8"/>
<path d="M71.2719 7.89614C71.7723 7.89748 72.2631 7.82588 72.6895 7.68937C73.1158 7.55285 73.4608 7.35681 73.6858 7.1232C73.9108 6.88959 74.0069 6.62763 73.9634 6.36666C73.9199 6.10569 73.7385 5.85601 73.4394 5.64558L78.0649 3.21703L105.341 3.21703L115.545 8.54266L189.439 8.54266L189.437 8.10994L115.886 8.10994L105.683 2.79044L77.7187 2.79044L72.8456 5.34789C72.5003 5.21744 72.1012 5.13145 71.6808 5.09695C71.2604 5.06245 70.8307 5.08041 70.4266 5.14936C70.0226 5.21832 69.6556 5.33632 69.3557 5.49374C69.0558 5.65117 68.8314 5.84356 68.7008 6.05523C68.5703 6.26691 68.5372 6.49187 68.6043 6.71179C68.6715 6.93171 68.8369 7.14035 69.0872 7.32071C69.3374 7.50107 69.6654 7.64804 70.0444 7.74964C70.4234 7.85124 70.8427 7.90459 71.268 7.90535L71.2719 7.89614Z" fill="url(#paint5_linear_74_5587)" fill-opacity="0.8"/>
<path d="M16.9955 6.4834C17.457 6.4833 17.9104 6.42094 18.3119 6.30233L22.714 8.602L39.0152 8.602L47.6566 13.1133L77.9096 13.1133L86.4335 8.6378L93.7578 12.4607L189.46 12.4607L189.458 12.0259L94.1015 12.0259L86.4303 8.02299L77.5613 12.6786L48.0041 12.6786L39.3608 8.16723L23.0596 8.16723L18.9672 6.03124C19.3873 5.7933 19.6376 5.48668 19.6759 5.16296C19.7143 4.83924 19.5385 4.51817 19.178 4.25377C18.8175 3.98936 18.2943 3.79776 17.6965 3.71118C17.0987 3.62461 16.4628 3.64834 15.8956 3.7784C15.3285 3.90845 14.8647 4.1369 14.5824 4.42529C14.3001 4.71369 14.2165 5.04444 14.3456 5.36191C14.4747 5.67938 14.8086 5.9642 15.2912 6.16845C15.7738 6.3727 16.3757 6.48392 16.9955 6.4834Z" fill="url(#paint6_linear_74_5587)" fill-opacity="0.8"/>
<path d="M2.77035 14.3082C3.41381 14.3082 4.03546 14.1878 4.52291 13.9687C5.01037 13.7495 5.33147 13.4461 5.42818 13.1133L34.7801 13.1133C34.8866 13.4652 35.2427 13.7834 35.7773 14.0044C36.3119 14.2254 36.9856 14.3329 37.6638 14.3055C38.342 14.278 38.9747 14.1176 39.4355 13.8563C39.8963 13.595 40.1512 13.252 40.1493 12.8959C40.1475 12.5399 39.8889 12.1969 39.4254 11.9356C38.9619 11.6743 38.3275 11.5138 37.649 11.4864C36.9705 11.4589 36.298 11.5664 35.7657 11.7875C35.2334 12.0085 34.8806 12.3267 34.7779 12.6785L5.42591 12.6785C5.34491 12.4119 5.11959 12.1627 4.77665 11.9606C4.43371 11.7585 3.98753 11.612 3.49099 11.5383C2.99445 11.4647 2.46836 11.467 1.97507 11.545C1.48178 11.6231 1.04196 11.7736 0.707744 11.9787C0.373529 12.1837 0.158918 12.4349 0.0893571 12.7022C0.0198005 12.9696 0.098212 13.242 0.315282 13.4871C0.532353 13.7323 0.878987 13.9399 1.31411 14.0854C1.74924 14.231 2.25462 14.3082 2.77035 14.3082Z" fill="url(#paint7_linear_74_5587)" fill-opacity="0.8"/>
<path d="M25.9785 3.38583C26.6221 3.38544 27.2435 3.26472 27.7308 3.04545C28.2182 2.82618 28.5393 2.52279 28.6363 2.18997L38.1552 2.18997L46.7985 6.70029L58.8426 6.70029C58.9491 7.05214 59.3052 7.37036 59.8398 7.59138C60.3744 7.81239 61.0481 7.91991 61.7263 7.89246C62.4045 7.865 63.0372 7.70458 63.498 7.44327C63.9588 7.18195 64.2137 6.83899 64.2118 6.48291C64.21 6.12683 63.9514 5.78386 63.4879 5.52255C63.0244 5.26123 62.39 5.10082 61.7115 5.07336C61.033 5.0459 60.3605 5.15342 59.8282 5.37444C59.2959 5.59545 58.9431 5.91368 58.8404 6.26552L47.1344 6.26552L38.491 1.7552L28.6282 1.7552C28.5472 1.48827 28.3217 1.23888 27.9784 1.0366C27.6352 0.834322 27.1886 0.687639 26.6916 0.61394C26.1946 0.540241 25.668 0.54262 25.1743 0.62079C24.6806 0.698959 24.2404 0.849643 23.906 1.05498C23.5716 1.26031 23.357 1.51169 23.2876 1.7793C23.2182 2.04691 23.2969 2.31954 23.5144 2.56487C23.7319 2.81019 24.0791 3.01792 24.5148 3.16343C24.9505 3.30894 25.4565 3.38612 25.9727 3.38583H25.9785Z" fill="url(#paint8_linear_74_5587)" fill-opacity="0.8"/>
<defs>
<linearGradient id="paint0_linear_74_5587" x1="23.6318" y1="22.702" x2="34.8558" y2="-22.812" gradientUnits="userSpaceOnUse">
<stop stop-color="#9A9A9B"/>
<stop offset="1" stop-color="#DBDADA"/>
</linearGradient>
<linearGradient id="paint1_linear_74_5587" x1="38.7398" y1="28.0206" x2="45.606" y2="-6.25698" gradientUnits="userSpaceOnUse">
<stop stop-color="#9A9A9B"/>
<stop offset="1" stop-color="#DBDADA"/>
</linearGradient>
<linearGradient id="paint2_linear_74_5587" x1="38.7887" y1="37.0811" x2="56.5362" y2="-16.2463" gradientUnits="userSpaceOnUse">
<stop stop-color="#9A9A9B"/>
<stop offset="1" stop-color="#DBDADA"/>
</linearGradient>
<linearGradient id="paint3_linear_74_5587" x1="90.0759" y1="36.9922" x2="98.8976" y2="6.03562" gradientUnits="userSpaceOnUse">
<stop stop-color="#9A9A9B"/>
<stop offset="1" stop-color="#DBDADA"/>
</linearGradient>
<linearGradient id="paint4_linear_74_5587" x1="33.6642" y1="45.1873" x2="48.5071" y2="-4.93296" gradientUnits="userSpaceOnUse">
<stop stop-color="#9A9A9B"/>
<stop offset="1" stop-color="#DBDADA"/>
</linearGradient>
<linearGradient id="paint5_linear_74_5587" x1="79.739" y1="8.51123" x2="86.1543" y2="-19.5863" gradientUnits="userSpaceOnUse">
<stop stop-color="#9A9A9B"/>
<stop offset="1" stop-color="#DBDADA"/>
</linearGradient>
<linearGradient id="paint6_linear_74_5587" x1="30.4972" y1="13.0617" x2="42.2835" y2="-32.4626" gradientUnits="userSpaceOnUse">
<stop stop-color="#9A9A9B"/>
<stop offset="1" stop-color="#DBDADA"/>
</linearGradient>
<linearGradient id="paint7_linear_74_5587" x1="3.77277" y1="14.2942" x2="8.18029" y2="1.26176" gradientUnits="userSpaceOnUse">
<stop stop-color="#9A9A9B"/>
<stop offset="1" stop-color="#DBDADA"/>
</linearGradient>
<linearGradient id="paint8_linear_74_5587" x1="27.0722" y1="7.85658" x2="45.6406" y2="-13.8071" gradientUnits="userSpaceOnUse">
<stop stop-color="#9A9A9B"/>
<stop offset="1" stop-color="#DBDADA"/>
</linearGradient>
</defs>
</svg>
