<svg width="205" height="94" viewBox="0 0 205 94" fill="none" xmlns="http://www.w3.org/2000/svg">
<path d="M77.1502 66.6532H95.7855L105.389 56.8619H144.908L151.214 50.4341H190.989C191.104 51.1691 191.487 51.8338 192.062 52.2955C192.637 52.7572 193.362 52.9818 194.092 52.9244C194.822 52.8671 195.502 52.532 195.998 51.9861C196.493 51.4403 196.767 50.7238 196.765 49.98C196.763 49.2362 196.485 48.5198 195.986 47.9739C195.487 47.4281 194.804 47.093 194.074 47.0356C193.344 46.9783 192.621 47.2029 192.048 47.6645C191.476 48.1262 191.096 48.791 190.986 49.5259H150.841L144.535 55.9537H105.016L95.4106 65.745H77.5176L69.8422 57.9688H0.173336L0.176051 58.877H69.4748L77.1502 66.6532Z" fill="url(#paint0_linear_60_27)" fill-opacity="0.5"/>
<path d="M96.9663 39.615H128.181L135.725 47.2587H140.86L148.617 39.3522H173.082C173.196 40.0872 173.58 40.7519 174.155 41.2136C174.73 41.6753 175.455 41.8999 176.185 41.8425C176.914 41.7852 177.595 41.4501 178.09 40.9042C178.586 40.3584 178.86 39.6419 178.858 38.8981C178.856 38.1543 178.577 37.4379 178.078 36.892C177.58 36.3462 176.897 36.0111 176.167 35.9537C175.437 35.8964 174.714 36.121 174.141 36.5826C173.569 37.0443 173.189 37.7091 173.079 38.444H148.244L140.488 46.3506H136.093L128.548 38.7069H96.5935L85.9792 49.526H0.148022L0.150737 50.4342H86.352L96.9663 39.615Z" fill="url(#paint1_linear_60_27)" fill-opacity="0.5"/>
<path d="M87.9159 31.9157H144.833L155.944 20.5902H173.07C173.239 21.3137 173.67 21.9467 174.277 22.3626C174.884 22.7786 175.623 22.9469 176.345 22.8339C177.068 22.7209 177.721 22.335 178.174 21.7532C178.627 21.1714 178.848 20.4366 178.79 19.6956C178.733 18.9545 178.403 18.2618 177.866 17.7558C177.329 17.2498 176.624 16.9678 175.893 16.9661C175.162 16.9644 174.458 17.2431 173.921 17.7466C173.385 18.25 173.056 18.9412 173 19.682H155.569L144.458 31.0076H87.5431L78.5787 40.1471H0.12008L0.122795 41.0553H78.9515L87.9159 31.9157Z" fill="url(#paint2_linear_60_27)" fill-opacity="0.5"/>
<path d="M84.4809 20.3722H93.9436L99.3242 25.8234H110.417L113.561 22.6181C114.175 23.0184 114.913 23.1694 115.63 23.0408C116.346 22.9121 116.988 22.5135 117.427 21.9243C117.865 21.3352 118.068 20.5989 117.996 19.8626C117.923 19.1263 117.58 18.4441 117.034 17.9523C116.489 17.4605 115.782 17.1953 115.054 17.2096C114.326 17.2239 113.631 17.5166 113.108 18.0294C112.585 18.5422 112.272 19.2372 112.232 19.9758C112.191 20.7143 112.427 21.4419 112.891 22.0134L110.042 24.9174H99.6832L94.3026 19.464H84.1081L73.8565 29.9156H0.0892554L0.0919512 30.8174H74.2293L84.4809 20.3722Z" fill="url(#paint3_linear_60_27)" fill-opacity="0.5"/>
<path d="M79.3063 9.95047H123.396L130.23 16.8762H145.234L152.307 9.66199H176.036L180.252 5.38819C180.845 5.82802 181.578 6.0247 182.306 5.93891C183.035 5.85312 183.703 5.49117 184.178 4.92543C184.654 4.35969 184.901 3.63183 184.87 2.88737C184.84 2.1429 184.534 1.43667 184.014 0.909865C183.494 0.383057 182.798 0.0744843 182.066 0.0458302C181.333 0.0171762 180.617 0.270553 180.062 0.755309C179.507 1.24007 179.153 1.92048 179.071 2.66055C178.988 3.40061 179.184 4.14579 179.619 4.74712L175.671 8.75808H151.934L144.861 15.968H130.598L123.764 9.04229H78.9314L66.9041 21.3017H0.06355L0.066265 22.2099H67.2769L79.3063 9.95047Z" fill="url(#paint4_linear_60_27)" fill-opacity="0.5"/>
<path d="M127.36 78.0621C126.821 78.0593 126.293 78.2088 125.835 78.494C125.376 78.7792 125.005 79.1887 124.763 79.6767C124.521 80.1647 124.418 80.7119 124.465 81.257C124.512 81.8021 124.707 82.3237 125.029 82.7633L120.054 87.8363H90.7091L79.7285 76.7115H0.229004L0.231706 77.6155H79.3611L90.3417 88.7273H120.427L125.668 83.3851C126.04 83.6576 126.469 83.8372 126.921 83.9093C127.374 83.9814 127.836 83.9438 128.271 83.7998C128.705 83.6558 129.1 83.4093 129.422 83.0804C129.745 82.7516 129.986 82.3497 130.127 81.9075C130.267 81.4654 130.303 80.9954 130.23 80.5361C130.158 80.0767 129.98 79.6408 129.71 79.2641C129.441 78.8873 129.088 78.5803 128.68 78.3681C128.272 78.1559 127.821 78.0444 127.364 78.0428L127.36 78.0621Z" fill="url(#paint5_linear_60_27)" fill-opacity="0.5"/>
<path d="M185.754 81.0132C185.257 81.0134 184.769 81.1437 184.337 81.3914L179.6 76.5876H162.063L152.763 67.1639H120.215L111.048 76.5129L103.166 68.5273H0.204759L0.207474 69.4354H102.796L111.052 77.7971L120.59 68.0721H152.389L161.691 77.4958H179.229L183.633 81.9577C183.181 82.4547 182.912 83.0952 182.871 83.7714C182.83 84.4477 183.019 85.1183 183.407 85.6706C183.795 86.223 184.358 86.6232 185.001 86.8041C185.644 86.9849 186.328 86.9353 186.939 86.6636C187.549 86.392 188.047 85.9148 188.351 85.3124C188.655 84.7099 188.744 84.019 188.605 83.3558C188.466 82.6927 188.107 82.0977 187.587 81.6711C187.068 81.2444 186.42 81.0121 185.754 81.0132Z" fill="url(#paint6_linear_60_27)" fill-opacity="0.5"/>
<path d="M201.054 64.668C200.361 64.6679 199.693 64.9194 199.168 65.3772C198.644 65.8349 198.299 66.4687 198.195 67.1639H166.617C166.502 66.4289 166.119 65.7642 165.543 65.3025C164.968 64.8408 164.243 64.6162 163.514 64.6736C162.784 64.7309 162.103 65.066 161.608 65.6119C161.112 66.1577 160.838 66.8741 160.84 67.618C160.843 68.3618 161.121 69.0782 161.62 69.6241C162.119 70.1699 162.801 70.505 163.531 70.5624C164.261 70.6197 164.985 70.3951 165.557 69.9334C166.13 69.4718 166.509 68.807 166.619 68.0721H198.198C198.285 68.6291 198.527 69.1496 198.897 69.5717C199.266 69.9939 199.746 70.3 200.28 70.4539C200.814 70.6078 201.38 70.6029 201.911 70.4399C202.441 70.2768 202.915 69.9625 203.274 69.5341C203.633 69.1056 203.864 68.5811 203.939 68.0226C204.014 67.4642 203.929 66.8952 203.695 66.383C203.462 65.8709 203.089 65.4372 202.62 65.1332C202.152 64.8292 201.608 64.6678 201.054 64.668Z" fill="url(#paint7_linear_60_27)" fill-opacity="0.5"/>
<path d="M176.092 87.4837C175.399 87.4845 174.731 87.7367 174.207 88.1947C173.682 88.6527 173.337 89.2865 173.233 89.9817H162.992L153.691 80.5601H140.733C140.618 79.8251 140.235 79.1604 139.66 78.6987C139.084 78.237 138.359 78.0124 137.63 78.0698C136.9 78.1272 136.22 78.4622 135.724 79.0081C135.228 79.554 134.954 80.2704 134.957 81.0142C134.959 81.758 135.237 82.4744 135.736 83.0203C136.235 83.5662 136.917 83.9013 137.647 83.9586C138.377 84.016 139.101 83.7914 139.673 83.3297C140.246 82.868 140.625 82.2033 140.736 81.4683H153.329L162.631 90.8899H173.242C173.329 91.4475 173.572 91.9684 173.941 92.391C174.311 92.8135 174.791 93.1199 175.326 93.2739C175.861 93.4278 176.427 93.4229 176.959 93.2596C177.49 93.0963 177.963 92.7815 178.323 92.3526C178.682 91.9237 178.913 91.3986 178.988 90.8396C179.062 90.2805 178.977 89.711 178.743 89.1986C178.509 88.6861 178.135 88.2522 177.666 87.9483C177.198 87.6443 176.653 87.4831 176.098 87.4837H176.092Z" fill="url(#paint8_linear_60_27)" fill-opacity="0.5"/>
<defs>
<linearGradient id="paint0_linear_60_27" x1="178.605" y1="47.1341" x2="139.329" y2="129.173" gradientUnits="userSpaceOnUse">
<stop stop-color="#9A9A9B"/>
<stop offset="1" stop-color="#DBDADA"/>
</linearGradient>
<linearGradient id="paint1_linear_60_27" x1="162.347" y1="36.0241" x2="137.192" y2="100.709" gradientUnits="userSpaceOnUse">
<stop stop-color="#9A9A9B"/>
<stop offset="1" stop-color="#DBDADA"/>
</linearGradient>
<linearGradient id="paint2_linear_60_27" x1="162.289" y1="17.0977" x2="105.901" y2="104.378" gradientUnits="userSpaceOnUse">
<stop stop-color="#9A9A9B"/>
<stop offset="1" stop-color="#DBDADA"/>
</linearGradient>
<linearGradient id="paint3_linear_60_27" x1="107.112" y1="17.2834" x2="77.5014" y2="70.8074" gradientUnits="userSpaceOnUse">
<stop stop-color="#9A9A9B"/>
<stop offset="1" stop-color="#DBDADA"/>
</linearGradient>
<linearGradient id="paint4_linear_60_27" x1="167.797" y1="0.164766" x2="118.599" y2="85.7394" gradientUnits="userSpaceOnUse">
<stop stop-color="#9A9A9B"/>
<stop offset="1" stop-color="#DBDADA"/>
</linearGradient>
<linearGradient id="paint5_linear_60_27" x1="118.25" y1="76.7772" x2="95.3752" y2="128.382" gradientUnits="userSpaceOnUse">
<stop stop-color="#9A9A9B"/>
<stop offset="1" stop-color="#DBDADA"/>
</linearGradient>
<linearGradient id="paint6_linear_60_27" x1="171.224" y1="67.2718" x2="130.515" y2="148.266" gradientUnits="userSpaceOnUse">
<stop stop-color="#9A9A9B"/>
<stop offset="1" stop-color="#DBDADA"/>
</linearGradient>
<linearGradient id="paint7_linear_60_27" x1="199.975" y1="64.697" x2="186.06" y2="85.8926" gradientUnits="userSpaceOnUse">
<stop stop-color="#9A9A9B"/>
<stop offset="1" stop-color="#DBDADA"/>
</linearGradient>
<linearGradient id="paint8_linear_60_27" x1="174.912" y1="78.1447" x2="140.265" y2="98.9736" gradientUnits="userSpaceOnUse">
<stop stop-color="#9A9A9B"/>
<stop offset="1" stop-color="#DBDADA"/>
</linearGradient>
</defs>
</svg>
