<svg width="97" height="38" viewBox="0 0 97 38" fill="none" xmlns="http://www.w3.org/2000/svg">
<path d="M0 19.485V38H96.6666V0.970001H48.3333H0V19.485ZM95.4418 19.485V35.9695H22.3374V3.00051H58.8896H95.4418V19.485ZM16.7257 11.0458C16.9481 11.1546 17.2178 11.5642 17.3005 11.9187C17.4737 12.6614 17.2572 13.5212 16.8127 13.8552C16.6861 13.9504 16.4807 13.9545 11.9262 13.9545C7.34267 13.9545 7.16709 13.951 7.03968 13.8545C6.70001 13.5973 6.50139 13.0782 6.50139 12.4477C6.50139 12.0149 6.579 11.7236 6.78181 11.3954C7.06714 10.9336 6.65933 10.9678 11.9133 10.9648C16.0552 10.9625 16.5733 10.9712 16.7257 11.0458ZM12.342 17.3975C12.429 17.4702 12.5521 17.6301 12.6161 17.7537C12.8413 18.1886 12.8324 17.9514 12.8221 23.204C12.8118 28.4887 12.8319 28.0596 12.5739 28.5101C12.3779 28.8521 12.2421 28.9429 11.9262 28.9429C11.6103 28.9429 11.4745 28.8521 11.2785 28.5101C11.0205 28.0596 11.0406 28.4887 11.0302 23.204C11.02 17.9514 11.011 18.1886 11.2374 17.7537C11.353 17.5317 11.5394 17.3406 11.7167 17.2623C11.8773 17.1914 12.1712 17.255 12.342 17.3975Z" fill="black"/>
<path d="M30.0473 11.0649C29.8428 11.1813 29.6197 11.5179 29.5204 11.8599C29.4264 12.1833 29.4284 12.7149 29.5248 13.0835C29.6073 13.3986 29.7894 13.7005 29.9892 13.8534C30.1167 13.9509 30.2922 13.9545 34.8758 13.9545C39.5882 13.9545 39.6314 13.9536 39.7752 13.8454C40.1039 13.5977 40.2993 13.0942 40.3022 12.4851C40.3051 11.8706 40.1114 11.3611 39.7752 11.1011L39.6301 10.9889L34.9241 10.9782C30.4179 10.968 30.2108 10.9717 30.0473 11.0649Z" fill="black"/>
<path d="M50.7286 11.0344C50.5716 11.1076 50.5287 11.1509 50.3547 11.412C50.1152 11.771 50.0256 12.4369 50.1406 12.998C50.2173 13.372 55.4123 28.254 55.5516 28.4993C55.618 28.6159 55.7537 28.7745 55.8504 28.8482C56.2017 29.1161 56.6697 28.9128 56.9118 28.3871C57.0504 28.0854 57.0946 27.8046 57.0768 27.3344L57.0623 26.9497L54.3789 19.2364C52.903 14.9938 51.6588 11.4583 51.6137 11.3789C51.4241 11.046 51.0316 10.8932 50.7286 11.0344Z" fill="black"/>
<path d="M62.4286 11.0357C62.3448 11.0748 62.2513 11.1389 62.2191 11.1791C61.9093 11.5666 61.791 11.9294 61.792 12.4851C61.7936 13.1172 61.8097 13.153 62.9282 15.0179C64.0628 16.9094 64.0931 16.9468 64.4915 16.9468C64.8622 16.9468 65.1171 16.7044 65.2896 16.1881C65.3724 15.9402 65.3844 15.8514 65.3844 15.4774C65.3844 15.1354 65.3692 15.0018 65.3089 14.8095C65.1971 14.4515 63.2725 11.2823 63.0733 11.1275C62.8844 10.9807 62.6252 10.9438 62.4286 11.0357Z" fill="black"/>
<path d="M71.4928 11.0348C71.4122 11.0708 71.301 11.1536 71.2494 11.216C71.1972 11.2792 70.0865 13.1049 68.7804 15.2743C66.4773 19.1002 66.4048 19.2265 66.3549 19.509C66.3097 19.763 66.3033 20.3025 66.3033 23.733C66.3033 28.2535 66.2917 28.0471 66.5734 28.5154C67.0298 29.2741 67.7596 29.0604 68.0332 28.0879L68.1083 27.8207V24.2139V20.6071L70.3292 16.9201C72.55 13.2332 72.55 13.2332 72.6045 12.9179C72.7454 12.1057 72.4778 11.278 71.9989 11.0418C71.8064 10.947 71.6926 10.9454 71.4928 11.0348Z" fill="black"/>
<path d="M83.1803 11.0455C82.974 11.1538 82.6749 11.6391 82.6188 11.9561C82.5528 12.3301 82.5705 12.8208 82.6617 13.1477C82.7059 13.3065 83.9049 16.7759 85.3287 20.8636C87.037 25.7689 87.9592 28.3653 88.0443 28.51C88.2422 28.8463 88.386 28.9422 88.6889 28.9396C88.8888 28.938 88.9758 28.912 89.0757 28.8242C89.2492 28.6716 89.429 28.3551 89.509 28.0612C89.5837 27.7863 89.5976 27.2704 89.538 26.9872C89.4893 26.7558 84.2479 11.6943 84.1306 11.4485C83.942 11.0533 83.5123 10.871 83.1803 11.0455Z" fill="black"/>
<path d="M34.6633 17.2615C34.5022 17.3294 34.2801 17.5656 34.1702 17.7858C33.9632 18.201 33.97 18.0049 33.98 23.204C33.9903 28.4887 33.9703 28.0595 34.2285 28.5101C34.4245 28.8521 34.5602 28.9429 34.8761 28.9429C35.192 28.9429 35.3277 28.8521 35.5236 28.5101C35.7818 28.0595 35.7618 28.4887 35.7722 23.204C35.7821 17.9514 35.7912 18.1886 35.5659 17.7537C35.3592 17.3545 34.9599 17.1368 34.6633 17.2615Z" fill="black"/>
<path d="M48.3979 17.3394C48.3076 17.4098 48.1984 17.5333 48.1494 17.6201C48.0285 17.8337 44.9332 26.752 44.8793 27.0406C44.7791 27.5802 44.86 28.1063 45.1069 28.5153C45.4911 29.1521 46.0697 29.1192 46.4207 28.4405C46.48 28.3256 46.7588 27.5589 47.0425 26.7306L47.5566 25.2291H49.0909C50.8508 25.2291 50.8618 25.2269 51.1216 24.8234C51.3375 24.4876 51.4213 24.1444 51.4055 23.6582C51.3914 23.22 51.3208 22.941 51.1538 22.6643C50.9127 22.2646 50.9088 22.2635 49.6936 22.2466C49.0941 22.2383 48.6087 22.2122 48.6138 22.1887C48.619 22.1652 48.8382 21.5422 49.1006 20.8048C49.5799 19.4582 49.7033 19.0255 49.7033 18.6941C49.7033 18.1491 49.4796 17.5794 49.1715 17.3391C48.9458 17.1633 48.6235 17.1634 48.3979 17.3394Z" fill="black"/>
<path d="M80.9403 17.2835C80.6686 17.4285 80.608 17.5828 78.9692 22.3117C78.1154 24.775 77.3969 26.8857 77.3718 27.0032C77.2335 27.6551 77.4153 28.4182 77.7976 28.7893C77.9894 28.9755 78.2875 29.0195 78.5131 28.8948C78.82 28.7252 78.9122 28.5315 79.5021 26.8109L80.0442 25.2292H81.5817C83.3191 25.2292 83.3339 25.2264 83.5931 24.8492C83.8251 24.5117 83.8864 24.2781 83.8864 23.7331C83.8864 23.2094 83.8316 22.983 83.6253 22.6537C83.369 22.2447 83.3416 22.2369 82.1555 22.2369C81.5753 22.2369 81.0982 22.226 81.0982 22.2128C81.0982 22.1996 81.3152 21.5743 81.5811 20.8209C82.1149 19.3087 82.2106 18.9405 82.1783 18.5232C82.1377 17.9942 81.9343 17.5436 81.6333 17.3164C81.4821 17.2025 81.124 17.1854 80.9403 17.2835Z" fill="black"/>
</svg>
