<svg xmlns="http://www.w3.org/2000/svg" width="97" height="38" viewBox="0 0 97 38" fill="none">
  <path d="M0 18.515V37.03H96.6666V3.2126e-05H48.3333H0V18.515ZM95.4418 18.515V34.9995H22.3374V2.03054H58.8896H95.4418V18.515ZM16.7257 10.0758C16.9481 10.1846 17.2178 10.5942 17.3005 10.9487C17.4737 11.6915 17.2572 12.5513 16.8127 12.8852C16.6861 12.9804 16.4807 12.9846 11.9262 12.9846C7.34267 12.9846 7.16709 12.981 7.03968 12.8845C6.70001 12.6273 6.50139 12.1083 6.50139 11.4777C6.50139 11.0449 6.579 10.7536 6.78181 10.4254C7.06714 9.96361 6.65933 9.99781 11.9133 9.99487C16.0552 9.99252 16.5733 10.0012 16.7257 10.0758ZM12.342 16.4276C12.429 16.5002 12.5521 16.6601 12.6161 16.7838C12.8413 17.2187 12.8324 16.9815 12.8221 22.2341C12.8118 27.5187 12.8319 27.0896 12.5739 27.5401C12.3779 27.8822 12.2421 27.9729 11.9262 27.9729C11.6103 27.9729 11.4745 27.8822 11.2785 27.5401C11.0205 27.0896 11.0406 27.5187 11.0302 22.2341C11.02 16.9815 11.011 17.2187 11.2374 16.7838C11.353 16.5617 11.5394 16.3706 11.7167 16.2923C11.8773 16.2215 12.1712 16.285 12.342 16.4276Z" fill="#EDEDED"/>
  <path d="M30.0473 10.0949C29.8428 10.2113 29.6197 10.548 29.5204 10.8899C29.4264 11.2133 29.4284 11.7449 29.5248 12.1136C29.6073 12.4286 29.7894 12.7305 29.9892 12.8835C30.1167 12.9809 30.2922 12.9846 34.8758 12.9846C39.5882 12.9846 39.6314 12.9836 39.7752 12.8754C40.1039 12.6278 40.2993 12.1243 40.3022 11.5151C40.3051 10.9006 40.1114 10.3911 39.7752 10.1312L39.6301 10.019L34.9241 10.0083C30.4179 9.99806 30.2108 10.0017 30.0473 10.0949Z" fill="#EDEDED"/>
  <path d="M50.7286 10.0645C50.5716 10.1376 50.5287 10.181 50.3547 10.442C50.1152 10.801 50.0256 11.467 50.1406 12.028C50.2173 12.4021 55.4123 27.284 55.5516 27.5293C55.618 27.6459 55.7537 27.8045 55.8504 27.8782C56.2017 28.1462 56.6697 27.9428 56.9118 27.4171C57.0504 27.1154 57.0946 26.8347 57.0768 26.3645L57.0623 25.9797L54.3789 18.2665C52.903 14.0238 51.6588 10.4883 51.6137 10.409C51.4241 10.0761 51.0316 9.92318 50.7286 10.0645Z" fill="#EDEDED"/>
  <path d="M62.4286 10.0657C62.3448 10.1049 62.2513 10.1689 62.2191 10.2091C61.9093 10.5966 61.791 10.9594 61.792 11.5151C61.7936 12.1472 61.8097 12.183 62.9282 14.0479C64.0628 15.9395 64.0931 15.9769 64.4915 15.9769C64.8622 15.9769 65.1171 15.7344 65.2896 15.2181C65.3724 14.9703 65.3844 14.8815 65.3844 14.5074C65.3844 14.1654 65.3692 14.0319 65.3089 13.8395C65.1971 13.4815 63.2725 10.3123 63.0733 10.1575C62.8844 10.0107 62.6252 9.97379 62.4286 10.0657Z" fill="#EDEDED"/>
  <path d="M71.4928 10.0648C71.4122 10.1009 71.301 10.1836 71.2494 10.246C71.1972 10.3093 70.0865 12.1349 68.7804 14.3044C66.4773 18.1303 66.4048 18.2565 66.3549 18.539C66.3097 18.7931 66.3033 19.3325 66.3033 22.763C66.3033 27.2836 66.2917 27.0772 66.5734 27.5454C67.0298 28.3042 67.7596 28.0904 68.0332 27.1179L68.1083 26.8508V23.2439V19.6371L70.3292 15.9502C72.55 12.2632 72.55 12.2632 72.6045 11.9479C72.7454 11.1357 72.4778 10.308 71.9989 10.0718C71.8064 9.97699 71.6926 9.97544 71.4928 10.0648Z" fill="#EDEDED"/>
  <path d="M83.1803 10.0755C82.974 10.1838 82.6749 10.6691 82.6188 10.9861C82.5528 11.3602 82.5705 11.8508 82.6617 12.1777C82.7059 12.3365 83.9049 15.8059 85.3287 19.8936C87.037 24.7989 87.9592 27.3954 88.0443 27.5401C88.2422 27.8763 88.386 27.9722 88.6889 27.9697C88.8888 27.968 88.9758 27.9421 89.0757 27.8542C89.2492 27.7017 89.429 27.3851 89.509 27.0912C89.5837 26.8164 89.5976 26.3004 89.538 26.0172C89.4893 25.7858 84.2479 10.7243 84.1306 10.4785C83.942 10.0833 83.5123 9.90107 83.1803 10.0755Z" fill="#EDEDED"/>
  <path d="M34.6633 16.2916C34.5022 16.3594 34.2801 16.5956 34.1702 16.8158C33.9632 17.231 33.97 17.0349 33.98 22.2341C33.9903 27.5187 33.9703 27.0896 34.2285 27.5401C34.4245 27.8822 34.5602 27.9729 34.8761 27.9729C35.192 27.9729 35.3277 27.8822 35.5236 27.5401C35.7818 27.0896 35.7618 27.5187 35.7722 22.2341C35.7821 16.9815 35.7912 17.2187 35.5659 16.7837C35.3592 16.3845 34.9599 16.1668 34.6633 16.2916Z" fill="#EDEDED"/>
  <path d="M48.3979 16.3694C48.3076 16.4399 48.1984 16.5633 48.1494 16.6501C48.0285 16.8637 44.9332 25.782 44.8793 26.0706C44.7791 26.6103 44.86 27.1363 45.1069 27.5454C45.4911 28.1822 46.0697 28.1492 46.4207 27.4706C46.48 27.3556 46.7588 26.5889 47.0425 25.7607L47.5566 24.2592H49.0909C50.8508 24.2592 50.8618 24.257 51.1216 23.8534C51.3375 23.5177 51.4213 23.1744 51.4055 22.6882C51.3914 22.25 51.3208 21.9711 51.1538 21.6943C50.9127 21.2946 50.9088 21.2935 49.6936 21.2766C49.0941 21.2683 48.6087 21.2423 48.6138 21.2188C48.619 21.1952 48.8382 20.5722 49.1006 19.8348C49.5799 18.4883 49.7033 18.0555 49.7033 17.7241C49.7033 17.1791 49.4796 16.6094 49.1715 16.3692C48.9458 16.1933 48.6235 16.1934 48.3979 16.3694Z" fill="#EDEDED"/>
  <path d="M80.9403 16.3135C80.6686 16.4586 80.608 16.6128 78.9692 21.3417C78.1154 23.805 77.3969 25.9157 77.3718 26.0333C77.2335 26.6852 77.4153 27.4482 77.7976 27.8193C77.9894 28.0056 78.2875 28.0495 78.5131 27.9248C78.82 27.7552 78.9122 27.5615 79.5021 25.8409L80.0442 24.2592H81.5817C83.3191 24.2592 83.3339 24.2565 83.5931 23.8793C83.8251 23.5417 83.8864 23.3081 83.8864 22.7631C83.8864 22.2394 83.8316 22.0131 83.6253 21.6837C83.369 21.2747 83.3416 21.2669 82.1555 21.2669C81.5753 21.2669 81.0982 21.2561 81.0982 21.2429C81.0982 21.2296 81.3152 20.6043 81.5811 19.8509C82.1149 18.3387 82.2106 17.9706 82.1783 17.5532C82.1377 17.0242 81.9343 16.5736 81.6333 16.3465C81.4821 16.2325 81.124 16.2154 80.9403 16.3135Z" fill="#EDEDED"/>
</svg>