<svg width="114" height="37" viewBox="0 0 114 37" fill="none" xmlns="http://www.w3.org/2000/svg">
<rect width="114" height="37" fill="#1E1E1E"/>
<g id="Home-Mobile" clip-path="url(#clip0_0_1)">
<rect width="360" height="2409" transform="translate(-123 -2240)" fill="#F2F1F9"/>
<g id="Rodap&#195;&#169;">
<rect width="360" height="216" transform="translate(-123 -47)" fill="#121213"/>
<g id="Logo">
<g id="g12">
<path id="path14" d="M0 18.4659V36.9319H113.713V7.62939e-06H56.8565H0V18.4659ZM112.272 18.4659V34.9068H26.2764V2.02514H69.2743H112.272V18.4659ZM19.6751 10.0491C19.9367 10.1576 20.254 10.5661 20.3513 10.9197C20.5551 11.6605 20.3003 12.518 19.7775 12.8511C19.6285 12.946 19.3869 12.9501 14.0293 12.9501C8.63748 12.9501 8.43095 12.9466 8.28106 12.8503C7.88149 12.5938 7.64785 12.0761 7.64785 11.4473C7.64785 11.0156 7.73915 10.7251 7.97772 10.3977C8.31336 9.93719 7.83364 9.9713 14.0141 9.96836C18.8864 9.96602 19.4958 9.97471 19.6751 10.0491ZM14.5184 16.384C14.6208 16.4564 14.7656 16.6159 14.8409 16.7393C15.1058 17.173 15.0952 16.9364 15.0832 22.1751C15.0711 27.4458 15.0947 27.0178 14.7911 27.4671C14.5606 27.8083 14.4009 27.8988 14.0293 27.8988C13.6577 27.8988 13.4979 27.8083 13.2674 27.4671C12.9638 27.0178 12.9875 27.4458 12.9753 22.1751C12.9633 16.9364 12.9527 17.173 13.2191 16.7393C13.355 16.5178 13.5743 16.3272 13.7828 16.2491C13.9717 16.1785 14.3174 16.2418 14.5184 16.384Z" fill="white"/>
<path id="path16" d="M35.3462 10.0682C35.1058 10.1843 34.8433 10.52 34.7264 10.8611C34.6159 11.1836 34.6182 11.7138 34.7317 12.0815C34.8287 12.3957 35.0429 12.6968 35.278 12.8494C35.4279 12.9466 35.6344 12.9502 41.0262 12.9502C46.5696 12.9502 46.6204 12.9492 46.7896 12.8413C47.1763 12.5944 47.4061 12.0922 47.4095 11.4846C47.4129 10.8718 47.185 10.3636 46.7896 10.1044L46.6189 9.99245L41.0831 9.98179C35.7823 9.97161 35.5387 9.97523 35.3462 10.0682Z" fill="white"/>
<path id="path18" d="M59.6735 10.0379C59.4889 10.1109 59.4385 10.1541 59.2337 10.4145C58.952 10.7725 58.8466 11.4367 58.9819 11.9963C59.0722 12.3693 65.1833 27.2119 65.3471 27.4565C65.4252 27.5728 65.5848 27.731 65.6985 27.8045C66.1118 28.0717 66.6624 27.8689 66.9472 27.3446C67.1102 27.0437 67.1621 26.7637 67.1413 26.2947L67.1242 25.911L63.9676 18.2182C62.2314 13.9868 60.7678 10.4607 60.7147 10.3815C60.4918 10.0495 60.03 9.89704 59.6735 10.0379Z" fill="white"/>
<path id="path20" d="M73.4373 10.0391C73.3388 10.0781 73.2288 10.142 73.1909 10.1821C72.8265 10.5686 72.6873 10.9304 72.6885 11.4846C72.6904 12.1151 72.7093 12.1508 74.0251 14.0107C75.3597 15.8973 75.3954 15.9346 75.864 15.9346C76.3001 15.9346 76.6 15.6928 76.8028 15.1778C76.9003 14.9306 76.9143 14.8421 76.9143 14.469C76.9143 14.1279 76.8965 13.9947 76.8256 13.8029C76.694 13.4458 74.43 10.2851 74.1957 10.1306C73.9735 9.98422 73.6686 9.9474 73.4373 10.0391Z" fill="white"/>
<path id="path22" d="M84.0998 10.0382C84.005 10.0741 83.8742 10.1567 83.8136 10.2189C83.7521 10.282 82.4455 12.1028 80.9091 14.2665C78.1999 18.0823 78.1146 18.2082 78.0559 18.49C78.0028 18.7433 77.9952 19.2814 77.9952 22.7028C77.9952 27.2113 77.9815 27.0055 78.3129 27.4725C78.8498 28.2292 79.7083 28.016 80.0302 27.0461L80.1185 26.7797V23.1824V19.5851L82.731 15.9079C85.3435 12.2307 85.3435 12.2307 85.4076 11.9163C85.5733 11.1063 85.2586 10.2807 84.6951 10.0452C84.4688 9.9506 84.3349 9.94905 84.0998 10.0382Z" fill="white"/>
<path id="path24" d="M97.8484 10.0488C97.6057 10.1569 97.2538 10.6408 97.1879 10.957C97.1101 11.3301 97.131 11.8194 97.2383 12.1454C97.2902 12.3038 98.7007 15.764 100.376 19.8409C102.385 24.7332 103.47 27.3228 103.57 27.4671C103.803 27.8025 103.972 27.8981 104.328 27.8956C104.563 27.8939 104.666 27.868 104.783 27.7804C104.987 27.6283 105.199 27.3126 105.293 27.0194C105.381 26.7453 105.397 26.2307 105.327 25.9483C105.27 25.7175 99.1042 10.6959 98.9662 10.4507C98.7443 10.0566 98.2389 9.87485 97.8484 10.0488Z" fill="white"/>
<path id="path26" d="M40.7757 16.2484C40.5862 16.3161 40.3249 16.5517 40.1956 16.7713C39.9522 17.1854 39.9601 16.9898 39.9719 22.1752C39.984 27.4458 39.9605 27.0178 40.2642 27.4671C40.4948 27.8083 40.6544 27.8988 41.026 27.8988C41.3976 27.8988 41.5572 27.8083 41.7877 27.4671C42.0915 27.0178 42.068 27.4458 42.0801 22.1752C42.0918 16.9365 42.1025 17.1731 41.8374 16.7393C41.5944 16.3412 41.1246 16.124 40.7757 16.2484Z" fill="white"/>
<path id="path28" d="M56.932 16.3262C56.8258 16.3964 56.6973 16.5196 56.6397 16.6061C56.4975 16.8192 52.8563 25.7138 52.793 26.0016C52.6751 26.5399 52.7702 27.0645 53.0607 27.4725C53.5126 28.1076 54.1932 28.0747 54.6062 27.3979C54.6759 27.2833 55.0039 26.5186 55.3376 25.6925L55.9424 24.195H57.7472C59.8175 24.195 59.8304 24.1928 60.136 23.7903C60.39 23.4554 60.4886 23.1131 60.47 22.6282C60.4533 22.1912 60.3703 21.9129 60.1739 21.6369C59.8903 21.2383 59.8857 21.2372 58.4563 21.2203C57.751 21.212 57.18 21.1861 57.186 21.1626C57.1921 21.1392 57.4499 20.5178 57.7586 19.7823C58.3224 18.4394 58.4676 18.0078 58.4676 17.6773C58.4676 17.1337 58.2045 16.5655 57.842 16.3259C57.5766 16.1505 57.1974 16.1506 56.932 16.3262Z" fill="white"/>
<path id="path30" d="M95.2129 16.2702C94.8933 16.4149 94.822 16.5687 92.8943 21.2851C91.8899 23.7419 91.0447 25.847 91.0152 25.9642C90.8525 26.6144 91.0663 27.3754 91.516 27.7456C91.7416 27.9313 92.0924 27.9751 92.3578 27.8508C92.7188 27.6816 92.8272 27.4884 93.5211 25.7724L94.1588 24.1949H95.9675C98.0112 24.1949 98.0286 24.1922 98.3335 23.816C98.6065 23.4793 98.6785 23.2463 98.6785 22.7027C98.6785 22.1805 98.6141 21.9547 98.3714 21.6262C98.07 21.2183 98.0377 21.2105 96.6424 21.2105C95.9599 21.2105 95.3987 21.1997 95.3987 21.1865C95.3987 21.1733 95.6539 20.5497 95.9667 19.7983C96.5946 18.2901 96.7072 17.9229 96.6693 17.5067C96.6216 16.9791 96.3823 16.5297 96.0282 16.3031C95.8503 16.1894 95.4291 16.1724 95.2129 16.2702Z" fill="white"/>
</g>
</g>
</g>
</g>
<defs>
<clipPath id="clip0_0_1">
<rect width="360" height="2409" fill="white" transform="translate(-123 -2240)"/>
</clipPath>
</defs>
</svg>
