<svg width="21" height="22" viewBox="0 0 21 22" fill="none" xmlns="http://www.w3.org/2000/svg">
<path d="M21 10.58C21 10.8918 20.9078 11.1908 20.7437 11.4112C20.5796 11.6317 20.3571 11.7556 20.125 11.7556H0.875C0.642936 11.7556 0.420376 11.6317 0.256282 11.4112C0.0921874 11.1908 0 10.8918 0 10.58C0 10.2682 0.0921874 9.96922 0.256282 9.74876C0.420376 9.5283 0.642936 9.40444 0.875 9.40444H20.125C20.3571 9.40444 20.5796 9.5283 20.7437 9.74876C20.9078 9.96922 21 10.2682 21 10.58ZM0.875 2.35111H20.125C20.3571 2.35111 20.5796 2.22726 20.7437 2.0068C20.9078 1.78634 21 1.48733 21 1.17556C21 0.863779 20.9078 0.564772 20.7437 0.344312C20.5796 0.123853 20.3571 0 20.125 0H0.875C0.642936 0 0.420376 0.123853 0.256282 0.344312C0.0921874 0.564772 0 0.863779 0 1.17556C0 1.48733 0.0921874 1.78634 0.256282 2.0068C0.420376 2.22726 0.642936 2.35111 0.875 2.35111ZM20.125 18.8089H0.875C0.642936 18.8089 0.420376 18.9327 0.256282 19.1532C0.0921874 19.3737 0 19.6727 0 19.9844C0 20.2962 0.0921874 20.5952 0.256282 20.8157C0.420376 21.0361 0.642936 21.16 0.875 21.16H20.125C20.3571 21.16 20.5796 21.0361 20.7437 20.8157C20.9078 20.5952 21 20.2962 21 19.9844C21 19.6727 20.9078 19.3737 20.7437 19.1532C20.5796 18.9327 20.3571 18.8089 20.125 18.8089Z" fill="black"/>
</svg>
