<svg width="10" height="11" viewBox="0 0 10 11" fill="none" xmlns="http://www.w3.org/2000/svg">
<path d="M7.16863 4.11569C7.22371 4.17083 7.25464 4.24559 7.25464 4.32353C7.25464 4.40147 7.22371 4.47622 7.16863 4.53137L4.42353 7.27647C4.36838 7.33155 4.29363 7.36248 4.21569 7.36248C4.13775 7.36248 4.06299 7.33155 4.00784 7.27647L2.83137 6.1C2.77942 6.04424 2.75114 5.9705 2.75248 5.8943C2.75383 5.81811 2.78469 5.74541 2.83858 5.69152C2.89247 5.63763 2.96517 5.60677 3.04137 5.60542C3.11756 5.60408 3.19131 5.63236 3.24706 5.68431L4.21569 6.65245L6.75294 4.11569C6.80809 4.06061 6.88284 4.02967 6.96078 4.02967C7.03873 4.02967 7.11348 4.06061 7.16863 4.11569ZM10 5.5C10 6.48891 9.70676 7.4556 9.15735 8.27785C8.60794 9.10009 7.82705 9.74096 6.91342 10.1194C5.99979 10.4978 4.99445 10.5969 4.02455 10.4039C3.05464 10.211 2.16373 9.73479 1.46447 9.03553C0.765206 8.33627 0.289002 7.44536 0.0960759 6.47545C-0.0968502 5.50555 0.00216634 4.50021 0.380604 3.58658C0.759043 2.67295 1.3999 1.89206 2.22215 1.34265C3.0444 0.793245 4.01109 0.5 5 0.5C6.32561 0.501557 7.59647 1.02884 8.53381 1.96619C9.47116 2.90353 9.99844 4.17439 10 5.5ZM9.41177 5.5C9.41177 4.62743 9.15302 3.77447 8.66825 3.04895C8.18348 2.32344 7.49445 1.75798 6.68831 1.42406C5.88217 1.09014 4.99511 1.00278 4.13931 1.17301C3.28351 1.34323 2.49741 1.76341 1.88041 2.38041C1.26342 2.99741 0.843237 3.78351 0.673008 4.63931C0.502779 5.4951 0.590147 6.38216 0.924063 7.18831C1.25798 7.99445 1.82345 8.68348 2.54896 9.16825C3.27447 9.65302 4.12744 9.91176 5 9.91176C6.16968 9.91047 7.29107 9.44524 8.11816 8.61815C8.94524 7.79107 9.41047 6.66967 9.41177 5.5Z" fill="#067258"/>
</svg>
