<svg width="15" height="16" viewBox="0 0 15 16" fill="none" xmlns="http://www.w3.org/2000/svg">
<path d="M10.7529 5.92353C10.8356 6.00625 10.882 6.11838 10.882 6.23529C10.882 6.3522 10.8356 6.46434 10.7529 6.54706L6.6353 10.6647C6.55257 10.7473 6.44044 10.7937 6.32353 10.7937C6.20662 10.7937 6.09449 10.7473 6.01177 10.6647L4.24706 8.9C4.16913 8.81637 4.12671 8.70575 4.12872 8.59146C4.13074 8.47716 4.17704 8.36811 4.25787 8.28728C4.3387 8.20645 4.44775 8.16015 4.56205 8.15813C4.67634 8.15611 4.78696 8.19854 4.87059 8.27647L6.32353 9.72867L10.1294 5.92353C10.2121 5.84091 10.3243 5.7945 10.4412 5.7945C10.5581 5.7945 10.6702 5.84091 10.7529 5.92353ZM15 8C15 9.48336 14.5601 10.9334 13.736 12.1668C12.9119 13.4001 11.7406 14.3614 10.3701 14.9291C8.99968 15.4967 7.49168 15.6453 6.03682 15.3559C4.58197 15.0665 3.2456 14.3522 2.1967 13.3033C1.14781 12.2544 0.433503 10.918 0.144114 9.46317C-0.145275 8.00832 0.0032495 6.50032 0.570907 5.12987C1.13856 3.75943 2.09986 2.58809 3.33323 1.76398C4.56659 0.939867 6.01664 0.5 7.5 0.5C9.48841 0.502335 11.3947 1.29326 12.8007 2.69928C14.2067 4.10529 14.9977 6.01159 15 8ZM14.1176 8C14.1176 6.69115 13.7295 5.4117 13.0024 4.32343C12.2752 3.23517 11.2417 2.38696 10.0325 1.88609C8.82325 1.38522 7.49266 1.25417 6.20896 1.50951C4.92527 1.76485 3.74611 2.39512 2.82062 3.32062C1.89513 4.24611 1.26486 5.42526 1.00951 6.70896C0.754169 7.99266 0.88522 9.32325 1.38609 10.5325C1.88697 11.7417 2.73517 12.7752 3.82343 13.5024C4.9117 14.2295 6.19115 14.6176 7.5 14.6176C9.25451 14.6157 10.9366 13.9179 12.1772 12.6772C13.4179 11.4366 14.1157 9.75451 14.1176 8Z" fill="#B0ADAD"/>
</svg>
