<svg width="114" height="33" viewBox="0 0 114 33" fill="none" xmlns="http://www.w3.org/2000/svg">
<path d="M0 16.495V32.9946H113.713V-0.00468826H56.8565H0V16.495ZM112.272 16.495V31.1851H26.2764V1.8048H69.2743H112.272V16.495ZM19.6751 8.97437C19.9367 9.07132 20.254 9.43631 20.3513 9.75225C20.5551 10.4141 20.3003 11.1804 19.7775 11.478C19.6285 11.5628 19.3869 11.5665 14.0293 11.5665C8.63748 11.5665 8.43095 11.5633 8.28106 11.4773C7.88149 11.2481 7.64785 10.7856 7.64785 10.2237C7.64785 9.83797 7.73915 9.5784 7.97772 9.28588C8.31336 8.87437 7.83364 8.90484 14.0141 8.90222C18.8864 8.90013 19.4958 8.90789 19.6751 8.97437ZM14.5184 14.6347C14.6208 14.6994 14.7656 14.842 14.8409 14.9521C15.1058 15.3397 15.0952 15.1283 15.0832 19.8092C15.0711 24.5186 15.0947 24.1362 14.7911 24.5377C14.5606 24.8425 14.4009 24.9234 14.0293 24.9234C13.6577 24.9234 13.4979 24.8425 13.2674 24.5377C12.9638 24.1362 12.9875 24.5186 12.9753 19.8092C12.9633 15.1283 12.9527 15.3397 13.2191 14.9521C13.355 14.7543 13.5743 14.584 13.7828 14.5142C13.9717 14.4511 14.3174 14.5077 14.5184 14.6347Z" fill="#0E0E0E"/>
<path d="M35.3462 8.99151C35.1058 9.09527 34.8433 9.39527 34.7264 9.70002C34.6159 9.98821 34.6182 10.4619 34.7317 10.7905C34.8287 11.0712 35.0429 11.3403 35.278 11.4766C35.4279 11.5634 35.6344 11.5667 41.0262 11.5667C46.5696 11.5667 46.6204 11.5658 46.7896 11.4694C47.1763 11.2487 47.4061 10.8 47.4095 10.2572C47.4129 9.70955 47.185 9.25551 46.7896 9.02385L46.6189 8.92385L41.0831 8.91432C35.7823 8.90523 35.5387 8.90847 35.3462 8.99151Z" fill="#0E0E0E"/>
<path d="M59.6735 8.96425C59.4889 9.02944 59.4385 9.06806 59.2337 9.30072C58.952 9.62062 58.8466 10.2141 58.9819 10.7141C59.0722 11.0474 65.1833 24.3095 65.3471 24.5281C65.4252 24.632 65.5848 24.7733 65.6985 24.839C66.1118 25.0778 66.6624 24.8965 66.9472 24.4281C67.1102 24.1592 67.1621 23.909 67.1413 23.49L67.1242 23.1472L63.9676 16.2735C62.2314 12.4926 60.7678 9.34196 60.7147 9.27125C60.4918 8.97459 60.03 8.83835 59.6735 8.96425Z" fill="#0E0E0E"/>
<path d="M73.4373 8.96541C73.3388 9.00031 73.2288 9.0574 73.1909 9.09321C72.8265 9.43854 72.6873 9.76182 72.6885 10.257C72.6904 10.8204 72.7093 10.8523 74.0251 12.5141C75.3597 14.1998 75.3954 14.2332 75.864 14.2332C76.3001 14.2332 76.6 14.0171 76.8028 13.557C76.9003 13.3361 76.9143 13.257 76.9143 12.9237C76.9143 12.6189 76.8965 12.4999 76.8256 12.3284C76.694 12.0094 74.43 9.18521 74.1957 9.04722C73.9735 8.91641 73.6686 8.8835 73.4373 8.96541Z" fill="#0E0E0E"/>
<path d="M84.0998 8.96459C84.005 8.99669 83.8742 9.07045 83.8136 9.12607C83.7521 9.1824 82.4455 10.8094 80.9091 12.7427C78.1999 16.1521 78.1146 16.2646 78.0559 16.5164C78.0028 16.7428 77.9952 17.2235 77.9952 20.2806C77.9952 24.3091 77.9815 24.1251 78.3129 24.5424C78.8498 25.2186 79.7083 25.0281 80.0302 24.1615L80.1185 23.9234V20.7092V17.4949L82.731 14.2093C85.3435 10.9236 85.3435 10.9236 85.4076 10.6427C85.5733 9.91891 85.2586 9.1813 84.6951 8.97083C84.4688 8.88631 84.3349 8.88493 84.0998 8.96459Z" fill="#0E0E0E"/>
<path d="M97.8484 8.97418C97.6057 9.07075 97.2538 9.50317 97.1879 9.78569C97.1101 10.119 97.131 10.5562 97.2383 10.8476C97.2902 10.9891 98.7007 14.0808 100.376 17.7236C102.385 22.095 103.47 24.4088 103.57 24.5378C103.803 24.8374 103.972 24.9228 104.328 24.9206C104.563 24.9191 104.666 24.896 104.783 24.8177C104.987 24.6818 105.199 24.3997 105.293 24.1378C105.381 23.8928 105.397 23.433 105.327 23.1806C105.27 22.9745 99.1042 9.55236 98.9662 9.33332C98.7443 8.98113 98.2389 8.81876 97.8484 8.97418Z" fill="#0E0E0E"/>
<path d="M40.7757 14.5135C40.5862 14.574 40.3249 14.7845 40.1956 14.9807C39.9522 15.3507 39.9601 15.1759 39.9719 19.8092C39.984 24.5186 39.9605 24.1362 40.2642 24.5376C40.4948 24.8425 40.6544 24.9233 41.026 24.9233C41.3976 24.9233 41.5572 24.8425 41.7877 24.5376C42.0915 24.1362 42.068 24.5186 42.0801 19.8092C42.0918 15.1283 42.1025 15.3397 41.8374 14.9521C41.5944 14.5964 41.1246 14.4023 40.7757 14.5135Z" fill="#0E0E0E"/>
<path d="M56.932 14.583C56.8258 14.6458 56.6973 14.7558 56.6397 14.8332C56.4975 15.0235 52.8563 22.9711 52.793 23.2282C52.6751 23.7092 52.7702 24.178 53.0607 24.5425C53.5126 25.1099 54.1932 25.0806 54.6062 24.4758C54.6759 24.3734 55.0039 23.6901 55.3376 22.952L55.9424 21.614H57.7472C59.8175 21.614 59.8304 21.612 60.136 21.2524C60.39 20.9532 60.4886 20.6473 60.47 20.214C60.4533 19.8235 60.3703 19.5749 60.1739 19.3283C59.8903 18.9721 59.8857 18.9711 58.4563 18.9561C57.751 18.9486 57.18 18.9255 57.186 18.9045C57.1921 18.8835 57.4499 18.3283 57.7586 17.6712C58.3224 16.4712 58.4676 16.0856 58.4676 15.7903C58.4676 15.3046 58.2045 14.7969 57.842 14.5828C57.5766 14.4261 57.1974 14.4262 56.932 14.583Z" fill="#0E0E0E"/>
<path d="M95.2129 14.5331C94.8933 14.6623 94.822 14.7998 92.8943 19.014C91.8899 21.2092 91.0447 23.0901 91.0152 23.1948C90.8525 23.7758 91.0663 24.4558 91.516 24.7865C91.7416 24.9525 92.0924 24.9916 92.3578 24.8805C92.7188 24.7293 92.8272 24.5567 93.5211 23.0234L94.1588 21.6139H95.9675C98.0112 21.6139 98.0286 21.6114 98.3335 21.2753C98.6065 20.9745 98.6785 20.7663 98.6785 20.2806C98.6785 19.814 98.6141 19.6122 98.3714 19.3187C98.07 18.9543 98.0377 18.9473 96.6424 18.9473C95.9599 18.9473 95.3987 18.9376 95.3987 18.9259C95.3987 18.9141 95.6539 18.3568 95.9667 17.6854C96.5946 16.3378 96.7072 16.0097 96.6693 15.6378C96.6216 15.1664 96.3823 14.7649 96.0282 14.5624C95.8503 14.4609 95.4291 14.4457 95.2129 14.5331Z" fill="#0E0E0E"/>
</svg>
