<svg width="15" height="16" viewBox="0 0 15 16" fill="none" xmlns="http://www.w3.org/2000/svg">
<path d="M11.7994 9.31354L9.49149 8.1597C9.40064 8.11443 9.29946 8.09393 9.19816 8.10026C9.09685 8.10659 8.99901 8.13953 8.91451 8.19576L7.85503 8.90249C7.36868 8.63515 6.96844 8.23495 6.70108 7.74864L7.40788 6.68926C7.46411 6.60477 7.49705 6.50694 7.50338 6.40564C7.50971 6.30435 7.48921 6.20318 7.44394 6.11234L6.28998 3.80465C6.24215 3.70807 6.16822 3.62681 6.07657 3.57009C5.98492 3.51337 5.87921 3.48346 5.77142 3.48374C5.0063 3.48374 4.27252 3.78765 3.73149 4.32862C3.19047 4.86959 2.88653 5.6033 2.88653 6.36835C2.88844 8.05087 3.55773 9.66393 4.74756 10.8537C5.9374 12.0434 7.55061 12.7126 9.23329 12.7145C9.61214 12.7145 9.98728 12.6399 10.3373 12.4949C10.6873 12.35 11.0053 12.1375 11.2732 11.8696C11.5411 11.6018 11.7536 11.2838 11.8986 10.9338C12.0436 10.5838 12.1182 10.2087 12.1182 9.82989C12.1183 9.72271 12.0885 9.61763 12.0322 9.52642C11.9759 9.43522 11.8953 9.36151 11.7994 9.31354ZM9.23329 11.5607C7.85654 11.5591 6.53662 11.0116 5.56311 10.0382C4.5896 9.06477 4.04201 7.74497 4.04049 6.36835C4.04037 5.9682 4.17893 5.58037 4.43259 5.27086C4.68624 4.96135 5.03931 4.74929 5.43173 4.67076L6.25969 6.32941L5.55505 7.37797C5.5024 7.45694 5.47005 7.54769 5.46086 7.64216C5.45168 7.73664 5.46595 7.83192 5.5024 7.91955C5.91522 8.9006 6.69575 9.68106 7.67689 10.0938C7.7648 10.1319 7.86081 10.1475 7.95626 10.1392C8.0517 10.1309 8.14357 10.0989 8.22358 10.0462L9.27729 9.34383L10.9361 10.1717C10.857 10.5645 10.6439 10.9177 10.3334 11.171C10.0229 11.4243 9.63405 11.562 9.23329 11.5607ZM7.50236 0.599121C6.20738 0.598839 4.93438 0.9338 3.80728 1.5714C2.68018 2.209 1.73737 3.12752 1.07061 4.23756C0.403861 5.34759 0.035882 6.61133 0.00249395 7.90575C-0.0308941 9.20018 0.271446 10.4812 0.880087 11.6241L0.0614987 14.0796C-0.00630733 14.283 -0.0161476 14.5011 0.0330809 14.7097C0.0823095 14.9183 0.188661 15.109 0.340216 15.2606C0.491771 15.4121 0.68254 15.5185 0.891141 15.5677C1.09974 15.6169 1.31793 15.6071 1.52125 15.5393L3.97702 14.7208C4.98296 15.2557 6.09757 15.5546 7.23625 15.5945C8.37492 15.6345 9.50774 15.4145 10.5487 14.9513C11.5897 14.4882 12.5114 13.7939 13.244 12.9214C13.9766 12.0488 14.5008 11.0209 14.7767 9.91551C15.0526 8.81016 15.0731 7.65648 14.8366 6.54203C14.6 5.42759 14.1127 4.38167 13.4115 3.48368C12.7103 2.58568 11.8138 1.85921 10.7899 1.3594C9.76603 0.859594 8.64174 0.599589 7.50236 0.599121ZM7.50236 14.4453C6.38661 14.446 5.29044 14.1522 4.32465 13.5936C4.25394 13.5526 4.17532 13.5271 4.094 13.5187C4.01268 13.5104 3.93053 13.5195 3.85297 13.5453L1.15559 14.4453L2.05496 11.7482C2.08088 11.6707 2.09005 11.5885 2.08184 11.5072C2.07363 11.4259 2.04825 11.3473 2.00736 11.2765C1.30775 10.0671 1.02686 8.6606 1.20826 7.27525C1.38967 5.8899 2.02322 4.60312 3.01064 3.61455C3.99807 2.62597 5.28416 1.99085 6.66941 1.80772C8.05467 1.62458 9.46164 1.90367 10.6721 2.60168C11.8825 3.29969 12.8288 4.37761 13.364 5.66822C13.8992 6.95883 13.9936 8.38998 13.6323 9.73967C13.2711 11.0893 12.4746 12.2821 11.3662 13.1329C10.2578 13.9837 8.89967 14.445 7.50236 14.4453Z" fill="#B0ADAD"/>
</svg>
